<mxfile host="65bd71144e">
    <diagram id="7TvKbrA-pe4VEW3usYTi" name="Page-1">
        <mxGraphModel dx="1107" dy="891" grid="1" gridSize="10" guides="1" tooltips="1" connect="1" arrows="1" fold="1" page="1" pageScale="1" pageWidth="827" pageHeight="1169" math="0" shadow="0">
            <root>
                <mxCell id="0"/>
                <mxCell id="1" parent="0"/>
                <mxCell id="5" value=":8080" style="edgeStyle=none;html=1;startArrow=classic;startFill=1;" edge="1" parent="1" source="3" target="4">
                    <mxGeometry relative="1" as="geometry"/>
                </mxCell>
                <mxCell id="3" value="Client" style="verticalLabelPosition=bottom;html=1;verticalAlign=top;align=center;strokeColor=#006EAF;fillColor=#1ba1e2;shape=mxgraph.azure.laptop;pointerEvents=1;fontColor=#ffffff;" vertex="1" parent="1">
                    <mxGeometry x="110" y="270" width="100" height="60" as="geometry"/>
                </mxCell>
                <mxCell id="11" value=":5000" style="edgeStyle=none;html=1;startArrow=classic;startFill=1;" edge="1" parent="1" source="4" target="10">
                    <mxGeometry relative="1" as="geometry"/>
                </mxCell>
                <mxCell id="4" value="VUE Webserver" style="whiteSpace=wrap;html=1;verticalAlign=middle;strokeWidth=3;strokeColor=none;fillColor=#1ba1e2;fontColor=#ffffff;align=center;" vertex="1" parent="1">
                    <mxGeometry x="300" y="265" width="80" height="70" as="geometry"/>
                </mxCell>
                <mxCell id="12" value="" style="edgeStyle=none;html=1;startArrow=classic;startFill=1;" edge="1" parent="1" source="9" target="10">
                    <mxGeometry relative="1" as="geometry"/>
                </mxCell>
                <mxCell id="9" value="MySQL DB" style="shape=cylinder3;whiteSpace=wrap;html=1;boundedLbl=1;backgroundOutline=1;size=15;strokeColor=#006EAF;strokeWidth=3;fillColor=#1ba1e2;fontColor=#ffffff;" vertex="1" parent="1">
                    <mxGeometry x="470" y="400" width="60" height="100" as="geometry"/>
                </mxCell>
                <mxCell id="10" value="Fast API" style="whiteSpace=wrap;html=1;verticalAlign=middle;strokeWidth=3;strokeColor=none;fillColor=#1ba1e2;fontColor=#ffffff;align=center;" vertex="1" parent="1">
                    <mxGeometry x="460" y="265" width="80" height="70" as="geometry"/>
                </mxCell>
            </root>
        </mxGraphModel>
    </diagram>
</mxfile>